<svg width="1600" height="520" viewBox="0 0 1600 520" xmlns="http://www.w3.org/2000/svg" role="img" aria-label="Healthcare Operations Proof System branded full-width banner"><rect width="1600" height="520" fill="#FFFFFF"/><rect x="16" y="16" width="1568" height="488" rx="30" fill="#FFFFFF" stroke="#000000" stroke-width="3"/><path d="M16 16 C235 28 260 145 235 260 C210 385 235 475 16 504 Z" fill="#FF8200"/><text x="300" y="130" font-family="Georgia,serif" font-size="68" font-weight="700" fill="#000000">HEALTHCARE</text><text x="300" y="210" font-family="Georgia,serif" font-size="78" font-weight="700" fill="#FF8200">OPERATIONS</text><text x="300" y="290" font-family="Georgia,serif" font-size="68" font-weight="700" fill="#000000">PROOF SYSTEM</text><line x1="300" y1="325" x2="1515" y2="325" stroke="#FF8200" stroke-width="6" stroke-dasharray="18 18"/><g fill="#FFFFFF" stroke="#FF8200" stroke-width="6"><circle cx="350" cy="390" r="34"/><circle cx="610" cy="390" r="34"/><circle cx="870" cy="390" r="34"/><circle cx="1130" cy="390" r="34"/><circle cx="1390" cy="390" r="34"/></g><g fill="none" stroke="#FF8200" stroke-width="3"><circle cx="350" cy="390" r="22"/><circle cx="610" cy="390" r="22"/><circle cx="870" cy="390" r="22"/><circle cx="1130" cy="390" r="22"/><circle cx="1390" cy="390" r="22"/></g><g font-family="Arial,sans-serif" font-size="21" font-weight="700" fill="#000000" text-anchor="middle"><text x="350" y="455">Workflow</text><text x="610" y="455">Denials</text><text x="870" y="455">Access</text><text x="1130" y="455">Authorization</text><text x="1390" y="455">Proof</text></g><text x="300" y="490" font-family="Arial,sans-serif" font-size="24" font-weight="700" fill="#000000">Built to show operational thinking before professional experience.</text><text x="1010" y="490" font-family="Arial,sans-serif" font-size="22" font-style="italic" fill="#FF8200">White space. Black clarity. Tennessee Orange urgency.</text><text x="42" y="470" font-family="Arial,sans-serif" font-size="21" font-weight="700" fill="#FFFFFF">Created by Kori Pickle</text><text x="42" y="502" font-family="Brush Script MT,Segoe Script,cursive" font-size="34" fill="#000000">Kori Pickle</text></svg>