<svg width="1600" height="360" viewBox="0 0 1600 360" xmlns="http://www.w3.org/2000/svg" role="img" aria-label="Healthcare Operations Proof System full-screen banner"><rect width="1600" height="360" fill="#FFFFFF"/><path d="M0 0 H260 C215 85 215 275 260 360 H0 Z" fill="#FF8200"/><text x="300" y="95" font-family="Georgia,serif" font-size="64" font-weight="700" fill="#000000">HEALTHCARE</text><text x="300" y="172" font-family="Georgia,serif" font-size="76" font-weight="700" fill="#FF8200">OPERATIONS</text><text x="300" y="248" font-family="Georgia,serif" font-size="64" font-weight="700" fill="#000000">PROOF SYSTEM</text><line x1="300" y1="282" x2="1580" y2="282" stroke="#FF8200" stroke-width="6" stroke-dasharray="18 18"/><g fill="#FFFFFF" stroke="#FF8200" stroke-width="6"><circle cx="350" cy="322" r="26"/><circle cx="615" cy="322" r="26"/><circle cx="880" cy="322" r="26"/><circle cx="1145" cy="322" r="26"/><circle cx="1410" cy="322" r="26"/></g><g fill="none" stroke="#FF8200" stroke-width="3"><circle cx="350" cy="322" r="16"/><circle cx="615" cy="322" r="16"/><circle cx="880" cy="322" r="16"/><circle cx="1145" cy="322" r="16"/><circle cx="1410" cy="322" r="16"/></g><g font-family="Arial,sans-serif" font-size="18" font-weight="700" fill="#000000" text-anchor="middle"><text x="350" y="354">Workflow</text><text x="615" y="354">Denials</text><text x="880" y="354">Access</text><text x="1145" y="354">Authorization</text><text x="1410" y="354">Proof</text></g><text x="36" y="292" font-family="Arial,sans-serif" font-size="22" font-weight="700" fill="#FFFFFF">Created by</text><text x="36" y="324" font-family="Arial,sans-serif" font-size="22" font-weight="700" fill="#FFFFFF">Kori Pickle</text><text x="36" y="352" font-family="Brush Script MT,Segoe Script,cursive" font-size="31" fill="#000000">Kori Pickle</text></svg>