<svg width="1600" height="900" viewBox="0 0 1600 900" xmlns="http://www.w3.org/2000/svg" role="img" aria-label="Healthcare Operations Proof System branded banner"><rect width="1600" height="900" fill="#FFFFFF"/><rect x="70" y="70" width="1460" height="760" rx="36" fill="#FFFFFF" stroke="#000000" stroke-width="3"/><path d="M70 70 C245 95 260 255 235 430 C210 610 245 755 70 830 Z" fill="#FF8200"/><text x="330" y="205" font-family="Georgia,serif" font-size="76" font-weight="700" fill="#000000">HEALTHCARE</text><text x="330" y="300" font-family="Georgia,serif" font-size="84" font-weight="700" fill="#FF8200">OPERATIONS</text><text x="330" y="395" font-family="Georgia,serif" font-size="76" font-weight="700" fill="#000000">PROOF SYSTEM</text><line x1="330" y1="440" x2="1430" y2="440" stroke="#FF8200" stroke-width="6" stroke-dasharray="18 18"/><g fill="#FFFFFF" stroke="#FF8200" stroke-width="6"><circle cx="380" cy="545" r="48"/><circle cx="635" cy="545" r="48"/><circle cx="890" cy="545" r="48"/><circle cx="1145" cy="545" r="48"/><circle cx="1380" cy="545" r="48"/></g><g fill="none" stroke="#FF8200" stroke-width="3"><circle cx="380" cy="545" r="30"/><circle cx="635" cy="545" r="30"/><circle cx="890" cy="545" r="30"/><circle cx="1145" cy="545" r="30"/><circle cx="1380" cy="545" r="30"/></g><g font-family="Arial,sans-serif" font-size="25" font-weight="700" fill="#000000" text-anchor="middle"><text x="380" y="640">Workflow</text><text x="635" y="640">Denials</text><text x="890" y="640">Access</text><text x="1145" y="640">Authorization</text><text x="1380" y="640">Proof</text></g><text x="330" y="750" font-family="Arial,sans-serif" font-size="32" font-weight="700" fill="#000000">Built to show operational thinking before professional experience.</text><text x="330" y="795" font-family="Arial,sans-serif" font-size="28" font-style="italic" fill="#FF8200">White space. Black clarity. Tennessee Orange urgency.</text><text x="95" y="865" font-family="Arial,sans-serif" font-size="24" font-weight="700" fill="#FFFFFF">Created by Kori Pickle</text><text x="95" y="900" font-family="Brush Script MT,Segoe Script,cursive" font-size="40" fill="#000000">Kori Pickle</text></svg>